<svg xmlns="http://www.w3.org/2000/svg" viewBox="0 0 24 24" fill="#000"><path d="M12 10.8c-1.087-2.114-4.046-6.053-6.798-7.995C2.566.944 1.561 1.266.902 1.565.139 1.908 0 3.08 0 3.768c0 .69.378 5.65.624 6.479.785 2.627 3.624 3.496 6.204 3.01-4.667.79-8.768 2.632-3.34 9.236 5.092 5.466 7.35-1.166 8.512-4.493.163-.466.245-.7.245-.7s.082.234.245.7c1.162 3.327 3.42 9.96 8.512 4.493 5.428-6.604 1.327-8.446-3.34-9.236 2.58.486 5.42-.383 6.204-3.01.246-.828.624-5.79.624-6.479 0-.689-.139-1.861-.902-2.203-.659-.3-1.664-.62-4.3 1.24C16.046 4.748 13.087 8.687 12 10.8"/></svg>
