<svg xmlns="http://www.w3.org/2000/svg" viewBox="0 0 24 24" fill="#000"><path d="M12 0C5.373 0 0 5.373 0 12c0 3.314 1.343 6.314 3.515 8.485l-2.286 2.286C.775 23.225 1.097 24 1.738 24H12c6.627 0 12-5.373 12-12S18.627 0 12 0m4.388 3.199c1.104 0 1.999.895 1.999 1.999 0 1.105-.895 2-1.999 2-.946 0-1.739-.657-1.947-1.539v.002c-1.147.162-2.032 1.15-2.032 2.341v.007c1.776.067 3.4.567 4.686 1.363.473-.363 1.064-.58 1.707-.58 1.547 0 2.801 1.254 2.801 2.801 0 1.117-.655 2.083-1.601 2.531-.014 3.44-3.541 6.224-7.902 6.224-4.361 0-7.889-2.784-7.902-6.225-.946-.448-1.6-1.414-1.6-2.53 0-1.547 1.254-2.8 2.8-2.8.645 0 1.239.218 1.712.585 1.275-.79 2.881-1.291 4.64-1.365v-.01c0-1.663 1.263-3.034 2.88-3.207.188-.911.993-1.597 1.958-1.597M8.5 12.001a1.5 1.5 0 1 0 0 3 1.5 1.5 0 0 0 0-3m7 0a1.5 1.5 0 1 0 0 3 1.5 1.5 0 0 0 0-3m-7.205 5.77c-.091-.091-.091-.237 0-.328.091-.091.237-.091.328 0 .869.869 2.24 1.291 3.377 1.291s2.508-.422 3.377-1.291c.091-.091.237-.091.328 0 .091.091.091.237 0 .328-.975.975-2.479 1.463-3.705 1.463-1.226 0-2.73-.488-3.705-1.463"/></svg>
