<svg xmlns="http://www.w3.org/2000/svg" viewBox="0 0 24 24" fill="#000"><path d="M12.186 24h-.007c-3.581-.024-6.334-1.205-8.184-3.509C2.35 18.44 1.5 15.586 1.472 12.01v-.017c.03-3.579.879-6.43 2.525-8.482C5.845 1.205 8.6.024 12.18 0h.014c2.746.02 5.043.725 6.826 2.098 1.677 1.29 2.858 3.13 3.509 5.467l-2.04.569c-1.104-3.96-3.898-5.984-8.304-6.015-2.91.022-5.11.936-6.54 2.717C4.307 6.504 3.616 8.914 3.589 12c.027 3.086.718 5.496 2.057 7.164 1.43 1.783 3.631 2.698 6.54 2.717 2.623-.02 4.358-.631 5.8-2.045 1.647-1.613 1.618-3.593 1.09-4.798-.31-.71-.873-1.3-1.634-1.75-.192 1.352-.622 2.446-1.284 3.272-.886 1.102-2.14 1.704-3.73 1.79-1.202.065-2.361-.218-3.259-.801-1.063-.689-1.685-1.74-1.752-2.96-.065-1.187.408-2.228 1.33-2.93.88-.67 2.056-1.048 3.505-1.126 1.089-.06 2.099.026 3.016.204-.078-1.166-.482-2.046-1.2-2.605-.766-.596-1.869-.894-3.278-.886l-.036.001c-1.174.014-2.144.337-2.886.96l-1.391-1.557c1.067-.897 2.47-1.378 4.173-1.428l.074-.002h.034c1.874 0 3.378.479 4.474 1.424 1.028.886 1.666 2.147 1.9 3.743.547.252 1.05.564 1.498.938 1.136.948 1.9 2.283 2.205 3.86.395 2.04.072 4.37-1.455 5.89C18.534 23.1 15.783 23.98 12.186 24zm-1.638-8.062c-.921.05-1.658.268-2.128.63-.42.322-.633.74-.608 1.2.04.726.654 1.567 2.17 1.567l.312-.009c1.082-.058 1.893-.462 2.41-1.202.36-.514.612-1.18.748-1.985a13.575 13.575 0 0 0-2.904-.201"/></svg>
